# xmcd
#
# Track frame offsets:
# 150
# 12045
# 30230
# 46138
# 62423
# 78323
# 93731
# 108075
# 124163
# 151001
# 162161
# 179764
# 190977
# 205417
# 219648
#
# Disc length: 3183 seconds
#
#
# Revision: 0
# Processed by: cddbd v1.5.2PL0 Copyright (c) Steve Scherf et al.
# Submitted via: FreeRIP 2.96 
#
DISCID=bc0c6d0f
DTITLE=Guto and Nando - O Show
DYEAR=2007
DGENRE=Sertanejo
TTITLE0=Virou mania
TTITLE1=Ela e Show
TTITLE2=Comitiva coracao
TTITLE3=Agito do meu povo
TTITLE4=To indo te buscar
TTITLE5=Ainda assim te amo
TTITLE6=Fica comigo
TTITLE7=Flashback
TTITLE8=Mais forte que eu - Hello
TTITLE9=Quebradas da noite
TTITLE10=A forca de uma paixao
TTITLE11=A casa ficou pequena
TTITLE12=Vai tremer o chao
TTITLE13=Fogo no salao
TTITLE14=100% rodeio
EXTD=Criado e decodificado por: Marcio Henrique
EXTT0=
EXTT1=
EXTT2=
EXTT3=
EXTT4=
EXTT5=
EXTT6=
EXTT7=
EXTT8=
EXTT9=
EXTT10=
EXTT11=
EXTT12=
EXTT13=
EXTT14=
PLAYORDER=
